<svg height="32" viewBox="0 0 252 32" width="252" xmlns="http://www.w3.org/2000/svg"><g fill="#fff" fill-rule="evenodd"><path d="m17.2767238 9.51257003c-.1926222-2.16329474-1.7632334-3.45238133-4.6229313-3.45238133-2.84488072 0-4.2673211 1.20018406-4.28213819 2.85969784-.05926835 1.80768466 1.68914799 2.72634406 4.44512619 3.31902756l2.6078074.5926835c5.9861032 1.3187207 9.2606795 4.2821382 9.2903137 9.1273257-.0296342 5.763847-4.5043946 9.1865941-12.0611091 9.1865941-7.63079991 0-12.56488998-3.3931129-12.6537925-10.4904977h7.02329937c.16298796 2.9189662 2.29664853 4.4303091 5.54159063 4.4303091 2.9486004 0 4.6821996-1.2890866 4.7118338-3.1412225-.0296342-1.7039651-1.52616-2.6078074-4.8600047-3.3782959l-3.17085664-.7408544c-5.2452489-1.2001841-8.47537392-3.7931744-8.46055683-8.40128849-.04445127-5.64531026 4.94890714-9.42366751 11.88330397-9.42366751 7.0529336 0 11.5721452 3.8376256 11.6314135 9.51257003zm18.4028486 8.26793467v12.9797685h-7.2455556v-30.34539476h7.0084822v11.76476726h.2518905c1.022379-2.80042946 3.4227472-4.47476032 6.8306773-4.47476032 4.7859191 0 7.9271417 3.39311302 7.9123246 8.54945932l.0000522 14.5059285h-7.2456079v-13.0834881c.0148171-2.5337219-1.3335379-4.0302477-3.6598206-4.0302477-2.2966485 0-3.8376256 1.5409771-3.8524427 4.1339673z"/><path d="m110.239229 30.8669567-5.926835-22.75904605h7.27519l3.067137 14.58001385h.192622l3.289393-14.58001385h7.097385l3.378296 14.47629425h.192622l2.978235-14.47629425h7.27519l-5.941652 22.75904605h-7.749337l-3.556101-13.2612931h-.251891l-3.5561 13.2612931zm41.873122.4296955c-7.201104 0-11.498059-4.7859192-11.498059-11.7351331 0-6.9788481 4.326589-11.74995019 11.483242-11.74995019 6.326896 0 10.416413 3.64500349 10.579401 9.24586249h-6.771409c-.281525-2.3262827-1.62988-3.733906-3.704272-3.733906-2.533722 0-4.208053 2.1484776-4.208053 6.1639083 0 4.0450648 1.659514 6.1935425 4.208053 6.1935425 1.98549 0 3.437564-1.3187208 3.704272-3.733906h6.771409c-.192623 5.6304931-4.163602 9.349582-10.564584 9.349582zm21.529252-30.77509023v30.34539473h-7.245556v-30.34539473zm15.21716 30.77509023c-7.156653 0-11.49806-4.7266508-11.49806-11.7351331 0-7.0232994 4.341407-11.74995019 11.49806-11.74995019s11.498059 4.72665079 11.498059 11.74995019c0 7.0084823-4.341406 11.7351331-11.498059 11.7351331zm.044451-5.4675052c2.59299 0 4.074699-2.548539 4.074699-6.3120791 0-3.7783573-1.481709-6.3417134-4.074699-6.3417134-2.681893 0-4.163601 2.5633561-4.163601 6.3417134 0 3.7635401 1.481708 6.3120791 4.163601 6.3120791zm25.796574 5.4675052c-7.201105 0-11.49806-4.7859192-11.49806-11.7351331 0-6.9788481 4.326589-11.74995019 11.483243-11.74995019 6.326896 0 10.416412 3.64500349 10.5794 9.24586249h-6.771409c-.281525-2.3262827-1.62988-3.733906-3.704272-3.733906-2.533722 0-4.208053 2.1484776-4.208053 6.1639083 0 4.0450648 1.659514 6.1935425 4.208053 6.1935425 1.98549 0 3.437564-1.3187208 3.704272-3.733906h6.771409c-.192622 5.6304931-4.163602 9.349582-10.564583 9.349582zm14.283696-.4296955v-30.34539473h7.245555v15.73574673h.325976l6.400982-8.14939805h8.208666l-8.075312 9.91263135 8.401288 12.8464147h-8.371654l-5.423054-8.6087277-1.466892 1.7780505v6.8306772z"/><path d="m57.3718166 6.48706798c6.9541596 2.24655483 13.9083192 3.36983224 20.8624788 3.36983224s13.9083192-1.12327741 20.8624788-3.36983224c1.1590268 4.21229032 1.7385398 8.42458062 1.7385398 12.63687092s-.579513 8.4245806-1.7385398 12.6368709c-6.9541596-2.2465548-13.9083192-3.3698323-20.8624788-3.3698323s-13.9083192 1.1232775-20.8624788 3.3698323c-1.1590266-4.2122903-1.7385399-8.4245806-1.7385399-12.6368709s.5795133-8.4245806 1.7385399-12.63687092z"/></g></svg>