<svg height="32" viewBox="0 0 252 32" width="252" xmlns="http://www.w3.org/2000/svg"><g fill="#d7f018" fill-rule="evenodd"><path d="m17.2855745 9.51257003c-.1927208-2.16329474-1.7641366-3.45238133-4.6252995-3.45238133-2.84633817 0-4.26950725 1.20018406-4.28433193 2.85969784-.05929871 1.80768466 1.69001333 2.72634406 4.44740343 3.31902756l2.6091433.5926835c5.9891699 1.3187207 9.2654237 4.2821382 9.2950731 9.1273257-.0296494 5.763847-4.5067021 9.1865941-12.0672879 9.1865941-7.63470916 0-12.57132693-3.3931129-12.660275-10.4904977h7.02689737c.16307146 2.9189662 2.29782509 4.4303091 5.54442953 4.4303091 2.950111 0 4.6845983-1.2890866 4.7142476-3.1412225-.0296493-1.7039651-1.5269418-2.6078074-4.8624943-3.3782959l-3.17248113-.7408544c-5.24793601-1.2001841-8.47971581-3.7931744-8.46489114-8.40128849-.04447403-5.64531026 4.95144245-9.42366751 11.88939177-9.42366751 7.0565467 0 11.5780735 3.8376256 11.6373722 9.51257003zm18.4122764 8.26793467v12.9797685h-7.2492675v-30.34539476h7.0120727v11.76476726h.2520195c1.0229028-2.80042946 3.4245006-4.47476032 6.8341765-4.47476032 4.788371 0 7.9312028 3.39311302 7.9163781 8.54945932l.0000522 14.5059285h-7.2493197v-13.0834881c.0148246-2.5337219-1.3342211-4.0302477-3.6616955-4.0302477-2.2978251 0-3.8395916 1.5409771-3.8544163 4.1339673z"/><path d="m110.295704 30.8669567-5.929871-22.75904605h7.278917l3.068708 14.58001385h.192721l3.291078-14.58001385h7.101021l3.380027 14.47629425h.19272l2.979761-14.47629425h7.278917l-5.944696 22.75904605h-7.753307l-3.557923-13.2612931h-.252019l-3.557923 13.2612931zm41.894574.4296955c-7.204794 0-11.50395-4.7859192-11.50395-11.7351331 0-6.9788481 4.328806-11.74995019 11.489125-11.74995019 6.330138 0 10.421749 3.64500349 10.58482 9.24586249h-6.774878c-.281669-2.3262827-1.630714-3.733906-3.706169-3.733906-2.53502 0-4.210209 2.1484776-4.210209 6.1639083 0 4.0450648 1.660364 6.1935425 4.210209 6.1935425 1.986507 0 3.439325-1.3187208 3.706169-3.733906h6.774878c-.192721 5.6304931-4.165734 9.349582-10.569995 9.349582zm21.540281-30.77509023v30.34539473h-7.249268v-30.34539473zm15.224955 30.77509023c-7.160319 0-11.50395-4.7266508-11.50395-11.7351331 0-7.0232994 4.343631-11.74995019 11.50395-11.74995019 7.16032 0 11.50395 4.72665079 11.50395 11.74995019 0 7.0084823-4.34363 11.7351331-11.50395 11.7351331zm.044474-5.4675052c2.594319 0 4.076787-2.548539 4.076787-6.3120791 0-3.7783573-1.482468-6.3417134-4.076787-6.3417134-2.683266 0-4.165734 2.5633561-4.165734 6.3417134 0 3.7635401 1.482468 6.3120791 4.165734 6.3120791zm25.809789 5.4675052c-7.204793 0-11.50395-4.7859192-11.50395-11.7351331 0-6.9788481 4.328806-11.74995019 11.489126-11.74995019 6.330137 0 10.421748 3.64500349 10.58482 9.24586249h-6.774878c-.281669-2.3262827-1.630715-3.733906-3.70617-3.733906-2.53502 0-4.210208 2.1484776-4.210208 6.1639083 0 4.0450648 1.660364 6.1935425 4.210208 6.1935425 1.986507 0 3.439326-1.3187208 3.70617-3.733906h6.774878c-.192721 5.6304931-4.165735 9.349582-10.569996 9.349582zm14.291014-.4296955v-30.34539473h7.249267v15.73574673h.326143l6.404261-8.14939805h8.212872l-8.07945 9.91263135 8.405592 12.8464147h-8.375943l-5.425832-8.6087277-1.467643 1.7780505v6.8306772z"/><path d="m57.4012079 6.48706798c6.9577222 2.24655483 13.9154444 3.36983224 20.8731666 3.36983224 6.9577221 0 13.9154443-1.12327741 20.8731665-3.36983224 1.15962 4.21229032 1.739431 8.42458062 1.739431 12.63687092s-.579811 8.4245806-1.739431 12.6368709c-6.9577222-2.2465548-13.9154444-3.3698323-20.8731665-3.3698323-6.9577222 0-13.9154444 1.1232775-20.8731666 3.3698323-1.1596203-4.2122903-1.7394305-8.4245806-1.7394305-12.6368709s.5798102-8.4245806 1.7394305-12.63687092z"/></g></svg>