<?xml version="1.0" encoding="UTF-8"?>
<svg width="252px" height="32px" viewBox="0 0 252 32" version="1.1" xmlns="http://www.w3.org/2000/svg" xmlns:xlink="http://www.w3.org/1999/xlink">
    <!-- Generator: Sketch 51 (57462) - http://www.bohemiancoding.com/sketch -->
    <title>logo-showclock</title>
    <desc>Created with Sketch.</desc>
    <defs></defs>
    <g id="logo-showclock" stroke="none" stroke-width="1" fill="none" fill-rule="evenodd">
        <g fill="#D7F018">
            <path d="M17.2855745,9.51257003 C17.0928537,7.34927529 15.5214379,6.0601887 12.660275,6.0601887 C9.81393683,6.0601887 8.39076775,7.26037276 8.37594307,8.91988654 C8.31664436,10.7275712 10.0659564,11.6462306 12.8233465,12.2389141 L15.4324898,12.8315976 C21.4216597,14.1503183 24.6979135,17.1137358 24.7275629,21.9589233 C24.6979135,27.7227703 20.2208608,31.1455174 12.660275,31.1455174 C5.02556584,31.1455174 0.088948068,27.7524045 0,20.6550197 L7.02689737,20.6550197 C7.18996883,23.5739859 9.32472246,25.0853288 12.5713269,25.0853288 C15.5214379,25.0853288 17.2559252,23.7962422 17.2855745,21.9441063 C17.2559252,20.2401412 15.7586327,19.3362989 12.4230802,18.5658104 L9.25059907,17.824956 C4.00266306,16.6247719 0.770883256,14.0317816 0.785707934,9.42366751 C0.7412339,3.77835725 5.73715038,0 12.6750997,0 C19.7316464,0 24.2531732,3.8376256 24.3124719,9.51257003 L17.2855745,9.51257003 Z M35.6978509,17.7805047 L35.6978509,30.7602732 L28.4485834,30.7602732 L28.4485834,0.414878444 L35.4606561,0.414878444 L35.4606561,12.1796457 L35.7126756,12.1796457 C36.7355784,9.37921624 39.1371762,7.70488538 42.5468521,7.70488538 C47.3352231,7.70488538 50.4780549,11.0979984 50.4632302,16.2543447 L50.4632824,30.7602732 L43.2139627,30.7602732 L43.2139627,17.6767851 C43.2287873,15.1430632 41.8797416,13.6465374 39.5522672,13.6465374 C37.2544421,13.6465374 35.7126756,15.1875145 35.6978509,17.7805047 Z" id="Sh"></path>
            <path d="M110.295704,30.8669567 L104.365833,8.10791065 L111.64475,8.10791065 L114.713458,22.6879245 L114.906179,22.6879245 L118.197257,8.10791065 L125.298278,8.10791065 L128.678305,22.5842049 L128.871025,22.5842049 L131.850786,8.10791065 L139.129703,8.10791065 L133.185007,30.8669567 L125.4317,30.8669567 L121.873777,17.6056636 L121.621758,17.6056636 L118.063835,30.8669567 L110.295704,30.8669567 Z M152.190278,31.2966522 C144.985484,31.2966522 140.686328,26.510733 140.686328,19.5615191 C140.686328,12.582671 145.015134,7.81156891 152.175453,7.81156891 C158.505591,7.81156891 162.597202,11.4565724 162.760273,17.0574314 L155.985395,17.0574314 C155.703726,14.7311487 154.354681,13.3235254 152.279226,13.3235254 C149.744206,13.3235254 148.069017,15.472003 148.069017,19.4874337 C148.069017,23.5324985 149.729381,25.6809762 152.279226,25.6809762 C154.265733,25.6809762 155.718551,24.3622554 155.985395,21.9470702 L162.760273,21.9470702 C162.567552,27.5775633 158.594539,31.2966522 152.190278,31.2966522 Z M173.730559,0.521561969 L173.730559,30.8669567 L166.481291,30.8669567 L166.481291,0.521561969 L173.730559,0.521561969 Z M188.955514,31.2966522 C181.795195,31.2966522 177.451564,26.5700014 177.451564,19.5615191 C177.451564,12.5382197 181.795195,7.81156891 188.955514,7.81156891 C196.115834,7.81156891 200.459464,12.5382197 200.459464,19.5615191 C200.459464,26.5700014 196.115834,31.2966522 188.955514,31.2966522 Z M188.999988,25.829147 C191.594307,25.829147 193.076775,23.280608 193.076775,19.5170679 C193.076775,15.7387106 191.594307,13.1753545 188.999988,13.1753545 C186.316722,13.1753545 184.834254,15.7387106 184.834254,19.5170679 C184.834254,23.280608 186.316722,25.829147 188.999988,25.829147 Z M214.809777,31.2966522 C207.604984,31.2966522 203.305827,26.510733 203.305827,19.5615191 C203.305827,12.582671 207.634633,7.81156891 214.794953,7.81156891 C221.12509,7.81156891 225.216701,11.4565724 225.379773,17.0574314 L218.604895,17.0574314 C218.323226,14.7311487 216.97418,13.3235254 214.898725,13.3235254 C212.363705,13.3235254 210.688517,15.472003 210.688517,19.4874337 C210.688517,23.5324985 212.348881,25.6809762 214.898725,25.6809762 C216.885232,25.6809762 218.338051,24.3622554 218.604895,21.9470702 L225.379773,21.9470702 C225.187052,27.5775633 221.214038,31.2966522 214.809777,31.2966522 Z M229.100791,30.8669567 L229.100791,0.521561969 L236.350058,0.521561969 L236.350058,16.2573087 L236.676201,16.2573087 L243.080462,8.10791065 L251.293334,8.10791065 L243.213884,18.020542 L251.619476,30.8669567 L243.243533,30.8669567 L237.817701,22.258229 L236.350058,24.0362795 L236.350058,30.8669567 L229.100791,30.8669567 Z" id="wclock"></path>
            <path d="M57.4012079,6.48706798 C64.3589301,8.73362281 71.3166523,9.85690022 78.2743745,9.85690022 C85.2320966,9.85690022 92.1898188,8.73362281 99.147541,6.48706798 C100.307161,10.6993583 100.886972,14.9116486 100.886972,19.1239389 C100.886972,23.3362292 100.307161,27.5485195 99.147541,31.7608098 C92.1898188,29.514255 85.2320966,28.3909775 78.2743745,28.3909775 C71.3166523,28.3909775 64.3589301,29.514255 57.4012079,31.7608098 C56.2415876,27.5485195 55.6617774,23.3362292 55.6617774,19.1239389 C55.6617774,14.9116486 56.2415876,10.6993583 57.4012079,6.48706798 Z" id="Rectangle"></path>
        </g>
    </g>
</svg>